# xmcd
# 
# Track frame offsets:
#     150
#     24858
#     60435
#     99863
#     144955
#     170638
# 
# Disc length: 2643
# 
# Revision: 0
# Processed by: cddbd v1.5.2PL0 Copyright (c) Steve Scherf et al.
# Submitted via: BonkEnc v1.0.6
# 
DISCID=3d0a5106
DTITLE=渡辺香津美 - Village In Bubbles
DYEAR=1978
DGENRE=Fusion
TTITLE0=Park Avenue
TTITLE1=Dance Of Corona
TTITLE2=Village In Bubbles
TTITLE3=Magic Carpet
TTITLE4=Mustache Daddy
TTITLE5=Crystal Rain
EXTD=
EXTT0=
EXTT1=
EXTT2=
EXTT3=
EXTT4=
EXTT5=
PLAYORDER=
